<svg width="349" height="71" viewBox="0 0 349 71" fill="none" xmlns="http://www.w3.org/2000/svg">
<path d="M7.375 60V18.75H15.1328C17.2891 18.75 18.9688 19.2031 20.1719 20.1094C21.375 21 22.2188 22.2812 22.7031 23.9531C23.1875 25.625 23.4297 27.625 23.4297 29.9531L23.4531 48.0703C23.4531 50.8516 23.1719 53.125 22.6094 54.8906C22.0625 56.6406 21.1641 57.9297 19.9141 58.7578C18.6797 59.5859 17.0312 60 14.9688 60H7.375ZM12.2031 56.0859H14.6875C15.5625 56.0859 16.2891 55.8984 16.8672 55.5234C17.4453 55.1328 17.875 54.4141 18.1562 53.3672C18.4531 52.3203 18.6016 50.8047 18.6016 48.8203V29.8359C18.6016 27.2422 18.2969 25.3906 17.6875 24.2812C17.0781 23.1562 16.0781 22.5938 14.6875 22.5938H12.2031V56.0859ZM29.7344 60V18.75H42.0625V22.7812H34.5859V36.8906H41.6641V40.9219H34.5859V55.9688H42.1562V60H29.7344ZM47.4531 60V18.75H55.75C57.3906 18.75 58.7188 19.0234 59.7344 19.5703C60.7656 20.1172 61.5547 20.9062 62.1016 21.9375C62.6484 22.9688 63.0156 24.2109 63.2031 25.6641C63.4062 27.1172 63.5078 28.75 63.5078 30.5625V31.1953C63.5078 33.9609 63.2891 36.2812 62.8516 38.1562C62.4297 40.0312 61.6562 41.4453 60.5312 42.3984C59.4219 43.3359 57.8281 43.8047 55.75 43.8047H52.3047V60H47.4531ZM52.3047 39.7734H55.2578C56.2109 39.7734 56.9297 39.5078 57.4141 38.9766C57.8984 38.4297 58.2266 37.5312 58.3984 36.2812C58.5859 35.0312 58.6797 33.3359 58.6797 31.1953V30.3984C58.6797 27.7422 58.4766 25.7812 58.0703 24.5156C57.6641 23.2344 56.7656 22.5938 55.375 22.5938H52.3047V39.7734ZM68.4062 60V18.75H80.7344V22.7812H73.2578V36.8906H80.3359V40.9219H73.2578V55.9688H80.8281V60H68.4062ZM93.7656 60.4922C91.7656 60.4922 90.1719 60.0078 88.9844 59.0391C87.7969 58.0547 86.9453 56.6172 86.4297 54.7266C85.9141 52.8359 85.6562 50.5391 85.6562 47.8359V30.6562C85.6562 28.8438 85.7734 27.1875 86.0078 25.6875C86.2422 24.1719 86.6562 22.8672 87.25 21.7734C87.8594 20.6641 88.7031 19.8125 89.7812 19.2188C90.8594 18.6094 92.2422 18.3047 93.9297 18.3047C95.5391 18.3047 96.8516 18.5938 97.8672 19.1719C98.8828 19.7344 99.6719 20.5469 100.234 21.6094C100.797 22.6562 101.18 23.9062 101.383 25.3594C101.602 26.7969 101.711 28.3906 101.711 30.1406V34.7109H96.9531V30.1172C96.9531 27.5547 96.7656 25.6406 96.3906 24.375C96.0312 23.0938 95.2109 22.4531 93.9297 22.4531C92.5703 22.4531 91.6562 23.1094 91.1875 24.4219C90.7344 25.7188 90.5078 27.6094 90.5078 30.0938V47.9531C90.5078 49.9531 90.5938 51.5781 90.7656 52.8281C90.9375 54.0625 91.2578 54.9609 91.7266 55.5234C92.2109 56.0859 92.8984 56.3672 93.7891 56.3672C95.0859 56.3672 95.9375 55.7109 96.3438 54.3984C96.75 53.0859 96.9531 50.9297 96.9531 47.9297V43.3594H101.758V47.8828C101.758 50.6328 101.516 52.9453 101.031 54.8203C100.562 56.6953 99.75 58.1094 98.5938 59.0625C97.4375 60.0156 95.8281 60.4922 93.7656 60.4922ZM107.641 60V18.75H112.492V36.3984H119.102V18.75H123.953V60H119.102V40.3594H112.492V60H107.641ZM130.703 60V18.75H143.031V22.7812H135.555V36.8906H142.633V40.9219H135.555V55.9688H143.125V60H130.703Z" fill="black"/>
<path d="M242.375 61V19.75H247.953L254.328 52.7266L260.398 19.75H266V61H261.852V45.3906L262.25 29.9688L256.039 61H252.57L246.102 29.9688L246.5 45.3906V61H242.375ZM280.602 61.4922C278.57 61.4922 276.953 61.0938 275.75 60.2969C274.562 59.4844 273.711 58.2578 273.195 56.6172C272.68 54.9766 272.422 52.9062 272.422 50.4062V19.75H277.273V50.2891C277.273 51.7734 277.328 53.0469 277.438 54.1094C277.547 55.1719 277.836 55.9844 278.305 56.5469C278.773 57.1094 279.539 57.3906 280.602 57.3906C281.68 57.3906 282.445 57.1094 282.898 56.5469C283.352 55.9844 283.625 55.1797 283.719 54.1328C283.828 53.0703 283.883 51.7969 283.883 50.3125V19.75H288.711V50.4062C288.711 52.9062 288.461 54.9766 287.961 56.6172C287.461 58.2578 286.617 59.4844 285.43 60.2969C284.258 61.0938 282.648 61.4922 280.602 61.4922ZM301.766 61.4688C300.094 61.4688 298.734 61.1719 297.688 60.5781C296.641 59.9688 295.836 59.1094 295.273 58C294.711 56.8906 294.32 55.5859 294.102 54.0859C293.898 52.5703 293.797 50.8984 293.797 49.0703V45.0625H298.508V49.2578C298.508 52.1484 298.711 54.2188 299.117 55.4688C299.539 56.7031 300.438 57.3203 301.812 57.3203C302.766 57.3203 303.461 57.1016 303.898 56.6641C304.352 56.2109 304.641 55.4922 304.766 54.5078C304.891 53.5234 304.953 52.2266 304.953 50.6172C304.953 48.7734 304.625 47.1875 303.969 45.8594C303.328 44.5312 302.398 43.2578 301.18 42.0391L298.484 39.3438C297.703 38.5469 296.938 37.6797 296.188 36.7422C295.438 35.7891 294.812 34.7109 294.312 33.5078C293.828 32.3047 293.586 30.9297 293.586 29.3828C293.586 27.3047 293.805 25.5078 294.242 23.9922C294.68 22.4766 295.477 21.3047 296.633 20.4766C297.789 19.6484 299.43 19.2344 301.555 19.2344C303.227 19.2344 304.562 19.5234 305.562 20.1016C306.578 20.6797 307.336 21.5078 307.836 22.5859C308.352 23.6484 308.688 24.9141 308.844 26.3828C309.016 27.8516 309.102 29.4766 309.102 31.2578V33.6953H304.461V30.9297C304.461 29.2578 304.391 27.8672 304.25 26.7578C304.125 25.6328 303.859 24.7891 303.453 24.2266C303.047 23.6641 302.414 23.3828 301.555 23.3828C300.773 23.3828 300.133 23.5781 299.633 23.9688C299.148 24.3438 298.797 24.9297 298.578 25.7266C298.359 26.5234 298.25 27.5469 298.25 28.7969C298.25 29.8906 298.383 30.7969 298.648 31.5156C298.914 32.2188 299.312 32.875 299.844 33.4844C300.391 34.0938 301.055 34.8125 301.836 35.6406L304.648 38.6172C306.133 40.1641 307.344 41.8984 308.281 43.8203C309.234 45.7266 309.711 47.9453 309.711 50.4766C309.711 52.7578 309.484 54.7188 309.031 56.3594C308.594 58 307.805 59.2656 306.664 60.1562C305.523 61.0312 303.891 61.4688 301.766 61.4688ZM314.516 61V19.75H319.367V61H314.516ZM333.781 61.4922C331.781 61.4922 330.188 61.0078 329 60.0391C327.812 59.0547 326.961 57.6172 326.445 55.7266C325.93 53.8359 325.672 51.5391 325.672 48.8359V31.6562C325.672 29.8438 325.789 28.1875 326.023 26.6875C326.258 25.1719 326.672 23.8672 327.266 22.7734C327.875 21.6641 328.719 20.8125 329.797 20.2188C330.875 19.6094 332.258 19.3047 333.945 19.3047C335.555 19.3047 336.867 19.5938 337.883 20.1719C338.898 20.7344 339.688 21.5469 340.25 22.6094C340.812 23.6562 341.195 24.9062 341.398 26.3594C341.617 27.7969 341.727 29.3906 341.727 31.1406V35.7109H336.969V31.1172C336.969 28.5547 336.781 26.6406 336.406 25.375C336.047 24.0938 335.227 23.4531 333.945 23.4531C332.586 23.4531 331.672 24.1094 331.203 25.4219C330.75 26.7188 330.523 28.6094 330.523 31.0938V48.9531C330.523 50.9531 330.609 52.5781 330.781 53.8281C330.953 55.0625 331.273 55.9609 331.742 56.5234C332.227 57.0859 332.914 57.3672 333.805 57.3672C335.102 57.3672 335.953 56.7109 336.359 55.3984C336.766 54.0859 336.969 51.9297 336.969 48.9297V44.3594H341.773V48.8828C341.773 51.6328 341.531 53.9453 341.047 55.8203C340.578 57.6953 339.766 59.1094 338.609 60.0625C337.453 61.0156 335.844 61.4922 333.781 61.4922Z" fill="black"/>
<path d="M150.158 37.5053C150.158 37.5053 152.055 37.2199 152.836 37.9668C153.618 38.7146 153.105 40.2616 152.068 40.2876C151.03 40.3197 150.071 40.4896 149.39 39.8261C148.709 39.1636 148.892 37.8321 150.158 37.5053ZM170.742 48.064C170.559 48.0961 170.366 48.0063 170.168 47.8748C168.809 46.1389 168.318 40.2029 167.693 39.8495C167.046 39.4827 164.703 43.1382 160.042 42.7454C158.093 42.5818 156.109 41.4238 154.941 40.6224C155.05 39.2736 155.069 36.1241 157.972 37.1484C159.735 37.7702 162.755 39.4785 165.408 36.4108C168.34 33.0182 169.957 34.0037 170.927 34.7413C171.897 35.4789 171.251 39.314 172.697 38.2419C174.144 37.1699 179.984 30.5123 179.984 30.5123C179.984 30.5123 184.506 26.3337 185.199 30.7272C185.891 35.12 188.84 39.9878 189.621 39.8492C190.403 39.7113 199.499 22.7715 200.802 21.6789C202.104 20.5857 206.49 20.7294 206.282 23.5328C206.073 26.3363 205.627 43.762 205.627 43.762C205.627 43.762 205.112 48.6721 205.95 46.0478C206.297 44.9601 206.671 43.9784 207.137 42.8332C209.382 36.2482 213.206 24.9987 215.112 19.2022C215.55 17.8153 215.927 16.6249 216.22 15.7096C216.315 15.3515 216.429 14.9953 216.561 14.6472C216.72 14.1559 216.828 13.8307 216.861 13.7451C216.946 13.527 217.185 13.3628 217.52 13.2416C217.857 13.0459 218.219 13.0363 218.628 13.0267C219.686 12.9401 221.046 13.0652 222.269 13.3856C222.625 13.3856 223.012 13.5042 223.379 13.7441C223.379 13.7441 223.401 13.7444 223.432 13.7765C223.44 13.7765 223.448 13.7765 223.457 13.8086C223.534 13.8567 223.658 13.9529 223.801 14.1132C223.805 14.1132 223.81 14.1132 223.815 14.1453C223.875 14.2126 223.935 14.2896 223.995 14.3794C224.679 15.2975 225.098 16.9898 224.677 19.9908C223.629 27.4802 222.817 42.8871 222.817 42.8871C222.817 42.8871 222.655 43.6241 224.34 40.3793C224.399 40.2671 224.474 40.1677 224.543 40.0651C224.634 40.0105 224.736 39.9304 224.863 39.7925C225.904 38.6553 228.702 37.9873 230.642 38.0011C231.46 38.0909 232.145 38.2801 232.554 38.5171C233.319 39.585 232.868 43.5263 232.868 43.5263C231.253 43.6642 228.177 44.4588 227.086 44.6057C225.995 44.7532 224.338 51.2437 222.034 50.5798C219.731 49.9163 214.598 46.9663 214.598 46.5606C214.598 46.2072 215.002 41.8959 215.107 40.7831C215.115 40.7061 215.121 40.6356 215.127 40.565C215.128 40.55 215.13 40.535 215.132 40.5201C215.207 39.6437 215.139 39.2617 214.698 40.1366C214.318 40.8889 212.664 45.7034 210.82 50.9467C210.626 51.405 207.142 61.067 206.684 62.2449C206.138 63.6114 205.68 64.6575 205.363 65.1985C204.88 65.7972 204.231 66.1721 203.323 65.9207C201.061 65.2941 198.195 62.4287 198.168 61.7177C198.114 57.7081 198.381 36.1491 197.32 37.9459C196.231 39.788 187.765 52.572 187.765 52.572C187.623 52.604 187.518 52.604 187.393 52.604C186.794 52.5431 185.865 52.3667 185.608 51.8395C185.594 51.8074 185.575 51.7818 185.563 51.7497C185.551 51.7176 185.537 51.6792 185.516 51.6214C185.401 51.2696 185.354 50.8874 185.252 50.5744C184.874 49.4032 184.268 47.7247 183.632 46.0174C182.657 43.1058 181.653 40.1276 181.487 39.7989C181.164 39.1553 180.693 39.4269 180.271 39.7982C178.381 41.267 174.367 47.7491 170.742 48.1035" fill="#E06C53"/>
</svg>
