<svg width="51" height="38" viewBox="0 0 51 38" fill="none" xmlns="http://www.w3.org/2000/svg">
<path d="M10.1445 24.5696C10.0272 24.5921 9.90296 24.5291 9.77599 24.437C8.90322 23.2207 8.58795 19.0613 8.1873 18.8137C7.77158 18.5566 6.26715 21.1181 3.27469 20.8428C2.02329 20.7282 0.749856 19.9168 0 19.3552C0.06966 18.4101 0.0817946 16.2032 1.94576 16.9209C3.07785 17.3566 5.01687 18.5537 6.71972 16.4041C8.60234 14.0269 9.64072 14.7174 10.2634 15.2343C10.8861 15.7511 10.4712 18.4384 11.4 17.6872C12.3287 16.936 16.0784 12.271 16.0784 12.271C16.0784 12.271 18.9817 9.34304 19.4261 12.4216C19.8708 15.4996 21.7638 18.9105 22.2654 18.8134C22.7674 18.7168 28.6073 6.84697 29.4437 6.08138C30.2801 5.31535 33.0957 5.41602 32.962 7.38043C32.8281 9.34484 32.5416 21.5551 32.5416 21.5551C32.5416 21.5551 32.2112 24.9956 32.7492 23.1568C32.9721 22.3946 33.2121 21.7068 33.5114 20.9044C34.9527 16.2902 37.4079 8.40757 38.6312 4.34595C38.9125 3.37408 39.1548 2.53996 39.3426 1.89864C39.4036 1.64773 39.4768 1.39809 39.5615 1.15417C39.6637 0.809917 39.7329 0.582061 39.7543 0.522064C39.8089 0.369261 39.9621 0.25421 40.1776 0.16927C40.3938 0.0321968 40.6259 0.0254557 40.8888 0.0187144C41.5677 -0.0419572 42.4409 0.0456797 43.2261 0.270165C43.4548 0.270165 43.7036 0.353307 43.9388 0.52139C43.9388 0.52139 43.953 0.521614 43.9728 0.544085C43.9779 0.544085 43.9835 0.544085 43.9892 0.566556C44.0384 0.600263 44.1179 0.667676 44.2101 0.780031C44.2127 0.780031 44.2157 0.780031 44.219 0.802502C44.2572 0.849691 44.2957 0.903621 44.3348 0.96654C44.7734 1.60988 45.0426 2.79568 44.7725 4.89851C44.0993 10.1464 43.5779 20.9421 43.5779 20.9421C43.5779 20.9421 43.4744 21.4585 44.5561 19.1849C44.5936 19.1062 44.6422 19.0366 44.6864 18.9647C44.7449 18.9265 44.8105 18.8703 44.8916 18.7737C45.5599 17.9768 47.3562 17.5088 48.602 17.5184C49.1269 17.5813 49.5667 17.7139 49.8294 17.88C50.321 18.6283 50.0309 21.39 50.0309 21.39C48.9946 21.4866 47.0192 22.0434 46.319 22.1463C45.6183 22.2497 44.5545 26.7976 43.0757 26.3324C41.5969 25.8675 38.3015 23.8004 38.3015 23.5162C38.3015 23.2685 38.5604 20.2475 38.628 19.4678C38.633 19.4139 38.637 19.3644 38.6411 19.315C38.6416 19.3045 38.6427 19.294 38.6442 19.2835C38.6921 18.6694 38.6489 18.4018 38.3654 19.0148C38.1213 19.5419 37.0598 22.9155 35.876 26.5895C35.7511 26.9106 33.5141 33.6809 33.2204 34.5063C32.8699 35.4637 32.5755 36.1967 32.3719 36.5758C32.0622 36.9954 31.6452 37.258 31.0627 37.0819C29.61 36.6428 27.7698 34.635 27.7528 34.1368C27.7179 31.3273 27.8894 16.2207 27.2083 17.4798C26.5095 18.7705 21.0737 27.7283 21.0737 27.7283C20.9827 27.7508 20.9153 27.7508 20.8351 27.7508C20.4504 27.7081 19.854 27.5845 19.6891 27.2151C19.6801 27.1926 19.6679 27.1747 19.6601 27.1522C19.6522 27.1297 19.6432 27.1027 19.6297 27.0623C19.5558 26.8158 19.5257 26.5479 19.4605 26.3286C19.2174 25.508 18.8284 24.3319 18.4201 23.1355C17.7945 21.0954 17.1496 19.0085 17.0433 18.7782C16.8359 18.3272 16.5337 18.5175 16.2625 18.7777C15.049 19.8069 12.4721 24.3489 10.1447 24.5972" fill="#E06C53"/>
</svg>
