<svg width="336" height="61" viewBox="0 0 336 61" fill="none" xmlns="http://www.w3.org/2000/svg">
<path d="M3.375 55V13.75H11.1328C13.2891 13.75 14.9688 14.2031 16.1719 15.1094C17.375 16 18.2188 17.2812 18.7031 18.9531C19.1875 20.625 19.4297 22.625 19.4297 24.9531L19.4531 43.0703C19.4531 45.8516 19.1719 48.125 18.6094 49.8906C18.0625 51.6406 17.1641 52.9297 15.9141 53.7578C14.6797 54.5859 13.0312 55 10.9688 55H3.375ZM8.20312 51.0859H10.6875C11.5625 51.0859 12.2891 50.8984 12.8672 50.5234C13.4453 50.1328 13.875 49.4141 14.1562 48.3672C14.4531 47.3203 14.6016 45.8047 14.6016 43.8203V24.8359C14.6016 22.2422 14.2969 20.3906 13.6875 19.2812C13.0781 18.1562 12.0781 17.5938 10.6875 17.5938H8.20312V51.0859ZM25.7344 55V13.75H38.0625V17.7812H30.5859V31.8906H37.6641V35.9219H30.5859V50.9688H38.1562V55H25.7344ZM43.4531 55V13.75H51.75C53.3906 13.75 54.7188 14.0234 55.7344 14.5703C56.7656 15.1172 57.5547 15.9062 58.1016 16.9375C58.6484 17.9688 59.0156 19.2109 59.2031 20.6641C59.4062 22.1172 59.5078 23.75 59.5078 25.5625V26.1953C59.5078 28.9609 59.2891 31.2812 58.8516 33.1562C58.4297 35.0312 57.6562 36.4453 56.5312 37.3984C55.4219 38.3359 53.8281 38.8047 51.75 38.8047H48.3047V55H43.4531ZM48.3047 34.7734H51.2578C52.2109 34.7734 52.9297 34.5078 53.4141 33.9766C53.8984 33.4297 54.2266 32.5312 54.3984 31.2812C54.5859 30.0312 54.6797 28.3359 54.6797 26.1953V25.3984C54.6797 22.7422 54.4766 20.7812 54.0703 19.5156C53.6641 18.2344 52.7656 17.5938 51.375 17.5938H48.3047V34.7734ZM64.4062 55V13.75H76.7344V17.7812H69.2578V31.8906H76.3359V35.9219H69.2578V50.9688H76.8281V55H64.4062ZM89.7656 55.4922C87.7656 55.4922 86.1719 55.0078 84.9844 54.0391C83.7969 53.0547 82.9453 51.6172 82.4297 49.7266C81.9141 47.8359 81.6562 45.5391 81.6562 42.8359V25.6562C81.6562 23.8438 81.7734 22.1875 82.0078 20.6875C82.2422 19.1719 82.6562 17.8672 83.25 16.7734C83.8594 15.6641 84.7031 14.8125 85.7812 14.2188C86.8594 13.6094 88.2422 13.3047 89.9297 13.3047C91.5391 13.3047 92.8516 13.5937 93.8672 14.1719C94.8828 14.7344 95.6719 15.5469 96.2344 16.6094C96.7969 17.6562 97.1797 18.9062 97.3828 20.3594C97.6016 21.7969 97.7109 23.3906 97.7109 25.1406V29.7109H92.9531V25.1172C92.9531 22.5547 92.7656 20.6406 92.3906 19.375C92.0312 18.0938 91.2109 17.4531 89.9297 17.4531C88.5703 17.4531 87.6562 18.1094 87.1875 19.4219C86.7344 20.7188 86.5078 22.6094 86.5078 25.0938V42.9531C86.5078 44.9531 86.5938 46.5781 86.7656 47.8281C86.9375 49.0625 87.2578 49.9609 87.7266 50.5234C88.2109 51.0859 88.8984 51.3672 89.7891 51.3672C91.0859 51.3672 91.9375 50.7109 92.3438 49.3984C92.75 48.0859 92.9531 45.9297 92.9531 42.9297V38.3594H97.7578V42.8828C97.7578 45.6328 97.5156 47.9453 97.0312 49.8203C96.5625 51.6953 95.75 53.1094 94.5938 54.0625C93.4375 55.0156 91.8281 55.4922 89.7656 55.4922ZM103.641 55V13.75H108.492V31.3984H115.102V13.75H119.953V55H115.102V35.3594H108.492V55H103.641ZM126.703 55V13.75H139.031V17.7812H131.555V31.8906H138.633V35.9219H131.555V50.9688H139.125V55H126.703Z" fill="black"/>
<path d="M233.375 56V14.75H238.953L245.328 47.7266L251.398 14.75H257V56H252.852V40.3906L253.25 24.9688L247.039 56H243.57L237.102 24.9688L237.5 40.3906V56H233.375ZM271.602 56.4922C269.57 56.4922 267.953 56.0938 266.75 55.2969C265.562 54.4844 264.711 53.2578 264.195 51.6172C263.68 49.9766 263.422 47.9062 263.422 45.4062V14.75H268.273V45.2891C268.273 46.7734 268.328 48.0469 268.438 49.1094C268.547 50.1719 268.836 50.9844 269.305 51.5469C269.773 52.1094 270.539 52.3906 271.602 52.3906C272.68 52.3906 273.445 52.1094 273.898 51.5469C274.352 50.9844 274.625 50.1797 274.719 49.1328C274.828 48.0703 274.883 46.7969 274.883 45.3125V14.75H279.711V45.4062C279.711 47.9062 279.461 49.9766 278.961 51.6172C278.461 53.2578 277.617 54.4844 276.43 55.2969C275.258 56.0938 273.648 56.4922 271.602 56.4922ZM292.766 56.4688C291.094 56.4688 289.734 56.1719 288.688 55.5781C287.641 54.9688 286.836 54.1094 286.273 53C285.711 51.8906 285.32 50.5859 285.102 49.0859C284.898 47.5703 284.797 45.8984 284.797 44.0703V40.0625H289.508V44.2578C289.508 47.1484 289.711 49.2188 290.117 50.4688C290.539 51.7031 291.438 52.3203 292.812 52.3203C293.766 52.3203 294.461 52.1016 294.898 51.6641C295.352 51.2109 295.641 50.4922 295.766 49.5078C295.891 48.5234 295.953 47.2266 295.953 45.6172C295.953 43.7734 295.625 42.1875 294.969 40.8594C294.328 39.5312 293.398 38.2578 292.18 37.0391L289.484 34.3438C288.703 33.5469 287.938 32.6797 287.188 31.7422C286.438 30.7891 285.812 29.7109 285.312 28.5078C284.828 27.3047 284.586 25.9297 284.586 24.3828C284.586 22.3047 284.805 20.5078 285.242 18.9922C285.68 17.4766 286.477 16.3047 287.633 15.4766C288.789 14.6484 290.43 14.2344 292.555 14.2344C294.227 14.2344 295.562 14.5234 296.562 15.1016C297.578 15.6797 298.336 16.5078 298.836 17.5859C299.352 18.6484 299.688 19.9141 299.844 21.3828C300.016 22.8516 300.102 24.4766 300.102 26.2578V28.6953H295.461V25.9297C295.461 24.2578 295.391 22.8672 295.25 21.7578C295.125 20.6328 294.859 19.7891 294.453 19.2266C294.047 18.6641 293.414 18.3828 292.555 18.3828C291.773 18.3828 291.133 18.5781 290.633 18.9688C290.148 19.3438 289.797 19.9297 289.578 20.7266C289.359 21.5234 289.25 22.5469 289.25 23.7969C289.25 24.8906 289.383 25.7969 289.648 26.5156C289.914 27.2188 290.312 27.875 290.844 28.4844C291.391 29.0938 292.055 29.8125 292.836 30.6406L295.648 33.6172C297.133 35.1641 298.344 36.8984 299.281 38.8203C300.234 40.7266 300.711 42.9453 300.711 45.4766C300.711 47.7578 300.484 49.7188 300.031 51.3594C299.594 53 298.805 54.2656 297.664 55.1562C296.523 56.0312 294.891 56.4688 292.766 56.4688ZM305.516 56V14.75H310.367V56H305.516ZM324.781 56.4922C322.781 56.4922 321.188 56.0078 320 55.0391C318.812 54.0547 317.961 52.6172 317.445 50.7266C316.93 48.8359 316.672 46.5391 316.672 43.8359V26.6562C316.672 24.8438 316.789 23.1875 317.023 21.6875C317.258 20.1719 317.672 18.8672 318.266 17.7734C318.875 16.6641 319.719 15.8125 320.797 15.2188C321.875 14.6094 323.258 14.3047 324.945 14.3047C326.555 14.3047 327.867 14.5937 328.883 15.1719C329.898 15.7344 330.688 16.5469 331.25 17.6094C331.812 18.6562 332.195 19.9062 332.398 21.3594C332.617 22.7969 332.727 24.3906 332.727 26.1406V30.7109H327.969V26.1172C327.969 23.5547 327.781 21.6406 327.406 20.375C327.047 19.0938 326.227 18.4531 324.945 18.4531C323.586 18.4531 322.672 19.1094 322.203 20.4219C321.75 21.7188 321.523 23.6094 321.523 26.0938V43.9531C321.523 45.9531 321.609 47.5781 321.781 48.8281C321.953 50.0625 322.273 50.9609 322.742 51.5234C323.227 52.0859 323.914 52.3672 324.805 52.3672C326.102 52.3672 326.953 51.7109 327.359 50.3984C327.766 49.0859 327.969 46.9297 327.969 43.9297V39.3594H332.773V43.8828C332.773 46.6328 332.531 48.9453 332.047 50.8203C331.578 52.6953 330.766 54.1094 329.609 55.0625C328.453 56.0156 326.844 56.4922 324.781 56.4922Z" fill="black"/>
<path d="M145.158 32.5053C145.158 32.5053 147.055 32.2199 147.836 32.9668C148.618 33.7146 148.105 35.2616 147.068 35.2876C146.03 35.3197 145.071 35.4896 144.39 34.8261C143.709 34.1636 143.892 32.8321 145.158 32.5053ZM165.742 43.064C165.559 43.0961 165.366 43.0063 165.168 42.8748C163.809 41.1389 163.318 35.2029 162.693 34.8495C162.046 34.4827 159.703 38.1382 155.042 37.7454C153.093 37.5818 151.109 36.4238 149.941 35.6224C150.05 34.2736 150.069 31.1241 152.972 32.1484C154.735 32.7702 157.755 34.4785 160.408 31.4108C163.34 28.0182 164.957 29.0037 165.927 29.7413C166.897 30.4789 166.251 34.314 167.697 33.2419C169.144 32.1699 174.984 25.5123 174.984 25.5123C174.984 25.5123 179.506 21.3337 180.199 25.7272C180.891 30.12 183.84 34.9878 184.621 34.8492C185.403 34.7113 194.499 17.7715 195.802 16.6789C197.104 15.5857 201.49 15.7294 201.282 18.5328C201.073 21.3363 200.627 38.762 200.627 38.762C200.627 38.762 200.112 43.672 200.95 41.0478C201.297 39.9601 201.671 38.9784 202.137 37.8332C204.382 31.2482 208.206 19.9987 210.112 14.2022C210.55 12.8153 210.927 11.6249 211.22 10.7096C211.315 10.3515 211.429 9.99525 211.561 9.64715C211.72 9.15586 211.828 8.83068 211.861 8.74505C211.946 8.52698 212.185 8.36279 212.52 8.24157C212.857 8.04595 213.219 8.03633 213.628 8.02671C214.686 7.94012 216.046 8.06519 217.269 8.38556C217.625 8.38556 218.012 8.50422 218.379 8.74409C218.379 8.74409 218.401 8.74441 218.432 8.77648C218.44 8.77648 218.448 8.77648 218.457 8.80855C218.534 8.85665 218.658 8.95286 218.801 9.11321C218.805 9.11321 218.81 9.11321 218.815 9.14527C218.875 9.21262 218.935 9.28959 218.995 9.37938C219.679 10.2975 220.098 11.9898 219.677 14.9908C218.629 22.4802 217.817 37.8871 217.817 37.8871C217.817 37.8871 217.655 38.6241 219.34 35.3793C219.399 35.2671 219.474 35.1677 219.543 35.065C219.634 35.0105 219.736 34.9304 219.863 34.7925C220.904 33.6553 223.702 32.9873 225.642 33.0011C226.46 33.0909 227.145 33.2801 227.554 33.5171C228.319 34.585 227.868 38.5263 227.868 38.5263C226.253 38.6642 223.177 39.4588 222.086 39.6057C220.995 39.7532 219.338 46.2437 217.034 45.5798C214.731 44.9163 209.598 41.9663 209.598 41.5606C209.598 41.2072 210.002 36.8959 210.107 35.7831C210.115 35.7061 210.121 35.6356 210.127 35.565C210.128 35.55 210.13 35.535 210.132 35.5201C210.207 34.6437 210.139 34.2617 209.698 35.1366C209.318 35.8889 207.664 40.7034 205.82 45.9467C205.626 46.405 202.142 56.067 201.684 57.2449C201.138 58.6114 200.68 59.6575 200.363 60.1985C199.88 60.7972 199.231 61.1721 198.323 60.9207C196.061 60.2941 193.195 57.4287 193.168 56.7177C193.114 52.7081 193.381 31.1491 192.32 32.9459C191.231 34.788 182.765 47.572 182.765 47.572C182.623 47.604 182.518 47.604 182.393 47.604C181.794 47.5431 180.865 47.3667 180.608 46.8395C180.594 46.8074 180.575 46.7818 180.563 46.7497C180.551 46.7176 180.537 46.6792 180.516 46.6214C180.401 46.2696 180.354 45.8874 180.252 45.5744C179.874 44.4032 179.268 42.7247 178.632 41.0174C177.657 38.1058 176.653 35.1276 176.487 34.7989C176.164 34.1553 175.693 34.4269 175.271 34.7982C173.381 36.267 169.367 42.7491 165.742 43.1035" fill="#E06C53"/>
</svg>
